<svg width="19" height="20" viewBox="0 0 19 20" fill="none" xmlns="http://www.w3.org/2000/svg">
<path d="M8.17989 3.2697C8.88378 2.13927 10.5293 2.13927 11.2332 3.2697L11.3328 3.42964C11.7397 4.08301 12.5172 4.40506 13.2668 4.23073L13.4503 4.18806C14.7474 3.88645 15.911 5.05003 15.6094 6.34709L15.5667 6.53061C15.3924 7.28028 15.7144 8.05778 16.3678 8.46461L16.5277 8.5642C17.6582 9.26809 17.6582 10.9136 16.5277 11.6175L16.3678 11.7171C15.7144 12.124 15.3924 12.9015 15.5667 13.6511L15.6094 13.8346C15.911 15.1317 14.7474 16.2953 13.4503 15.9937L13.2668 15.951C12.5171 15.7767 11.7397 16.0987 11.3328 16.7521L11.2332 16.912C10.5293 18.0425 8.88378 18.0425 8.17989 16.912L8.0803 16.7521C7.67347 16.0987 6.89597 15.7767 6.1463 15.951L5.96278 15.9937C4.66572 16.2953 3.50214 15.1317 3.80375 13.8346L3.84642 13.6511C4.02075 12.9015 3.6987 12.124 3.04533 11.7171L2.88539 11.6175C1.75496 10.9136 1.75496 9.26809 2.88539 8.5642L3.04534 8.46461C3.6987 8.05778 4.02075 7.28028 3.84642 6.53061L3.80375 6.34709C3.50214 5.05003 4.66572 3.88645 5.96278 4.18806L6.1463 4.23073C6.89597 4.40506 7.67347 4.083 8.0803 3.42964L8.17989 3.2697Z" fill="#56E39F"/>
<path d="M13.0231 7.8107L8.46277 12.371L6.38989 10.2982" stroke="white" stroke-width="0.829151" stroke-linecap="round" stroke-linejoin="round"/>
</svg>
