<svg width="17" height="16" viewBox="0 0 17 16" fill="none" xmlns="http://www.w3.org/2000/svg">
<path d="M11.4355 12.3786C11.426 11.8293 11.5796 11.2895 11.8768 10.8275C12.1741 10.3655 12.6016 10.002 13.1055 9.78304C13.6093 9.56402 14.1667 9.49932 14.7073 9.59711C15.2479 9.69489 15.7474 9.95077 16.1425 10.3324C16.5377 10.714 16.8108 11.2042 16.9274 11.7411C17.044 12.2779 16.9988 12.8373 16.7975 13.3485C16.5961 13.8596 16.2478 14.2996 15.7965 14.6128C15.3451 14.9259 14.811 15.0983 14.2617 15.1079H14.2133C13.8517 15.1111 13.493 15.0431 13.1577 14.9076C12.8224 14.7722 12.517 14.572 12.2591 14.3186C12.0012 14.0651 11.7957 13.7634 11.6543 13.4305C11.513 13.0976 11.4387 12.7402 11.4355 12.3786ZM2.0604 13.6141C1.73915 13.6226 1.42765 13.5032 1.19444 13.2821C0.961231 13.061 0.825404 12.7563 0.816837 12.4351C0.808271 12.1138 0.927657 11.8024 1.14875 11.5691C1.36985 11.3359 1.67454 11.2001 1.99578 11.1915H7.36567C7.68691 11.183 7.99841 11.3024 8.23162 11.5235C8.46483 11.7446 8.60066 12.0492 8.60923 12.3705C8.61779 12.6917 8.49841 13.0032 8.27731 13.2364C8.05621 13.4697 7.75153 13.6055 7.43028 13.6141H2.0604ZM0.841061 3.4799C0.849583 2.75027 1.14652 2.05366 1.667 1.54225C2.18748 1.03085 2.8892 0.74622 3.61887 0.750537C4.34854 0.74622 5.05026 1.03085 5.57074 1.54225C6.09123 2.05366 6.38816 2.75027 6.39668 3.4799C6.39351 3.84151 6.31914 4.19895 6.17782 4.53182C6.03651 4.86469 5.83101 5.16646 5.57306 5.41991C5.31511 5.67335 5.00978 5.87351 4.67448 6.00895C4.33917 6.14438 3.98048 6.21245 3.61887 6.20926C3.25726 6.21245 2.89857 6.14438 2.56326 6.00895C2.22796 5.87351 1.9226 5.67335 1.66466 5.41991C1.40671 5.16646 1.20123 4.86469 1.05992 4.53182C0.918601 4.19895 0.844229 3.84151 0.841061 3.4799ZM10.4665 4.675C10.1453 4.675 9.83716 4.54739 9.61 4.32024C9.38285 4.09308 9.25524 3.78499 9.25524 3.46374C9.25524 3.1425 9.38285 2.83442 9.61 2.60726C9.83716 2.38011 10.1453 2.25249 10.4665 2.25249H15.7718C16.093 2.25249 16.4011 2.38011 16.6283 2.60726C16.8554 2.83442 16.983 3.1425 16.983 3.46374C16.983 3.78499 16.8554 4.09308 16.6283 4.32024C16.4011 4.54739 16.093 4.675 15.7718 4.675H10.4665Z" fill="#7D8CAC"/>
</svg>
