<svg width="17" height="16" viewBox="0 0 17 16" fill="none" xmlns="http://www.w3.org/2000/svg">
<path d="M11.7055 15.982C11.4386 15.982 11.1743 15.9293 10.9278 15.8269C10.6813 15.7245 10.4574 15.5745 10.269 15.3854C10.0807 15.1963 9.9315 14.9718 9.83008 14.7249C9.72867 14.478 9.677 14.2135 9.67805 13.9466V11.2327C9.67379 10.6943 9.88308 10.1761 10.2601 9.79158C10.6371 9.40709 11.1511 9.18767 11.6895 9.18135H14.4034C14.6707 9.18239 14.9352 9.23608 15.1817 9.33934C15.4283 9.44259 15.6521 9.5934 15.8403 9.78315C16.0286 9.9729 16.1776 10.1979 16.279 10.4452C16.3803 10.6926 16.4319 10.9575 16.4308 11.2247V13.9386C16.4319 14.2059 16.3803 14.4708 16.279 14.7182C16.1776 14.9655 16.0286 15.1905 15.8403 15.3802C15.6521 15.57 15.4283 15.7208 15.1817 15.824C14.9352 15.9273 14.6707 15.981 14.4034 15.982H11.7055ZM2.49424 15.982C2.22694 15.981 1.96247 15.9273 1.71593 15.824C1.46938 15.7208 1.24559 15.57 1.05733 15.3802C0.869063 15.1905 0.720012 14.9655 0.618692 14.7182C0.517372 14.4708 0.465762 14.2059 0.466813 13.9386V11.2247C0.464685 10.6842 0.676848 10.1648 1.05684 9.78031C1.43683 9.39583 1.95368 9.17759 2.49424 9.17337H5.19216C5.72995 9.17757 6.2444 9.39361 6.62394 9.77465C7.00348 10.1557 7.21751 10.671 7.2196 11.2088V13.9386C7.2217 14.2055 7.17108 14.4702 7.07063 14.7176C6.97018 14.9649 6.82189 15.1899 6.63426 15.3797C6.44663 15.5696 6.22336 15.7205 5.97726 15.8239C5.73115 15.9272 5.46706 15.981 5.20014 15.982H2.49424ZM11.7055 6.82666C11.1678 6.82666 10.6521 6.61305 10.2719 6.23284C9.89166 5.85262 9.67805 5.33694 9.67805 4.79923V2.06938C9.67592 1.52881 9.88808 1.00942 10.2681 0.624944C10.6481 0.240464 11.1649 0.0222244 11.7055 0.0180054H14.4034C14.944 0.0222244 15.4608 0.240464 15.8408 0.624944C16.2208 1.00942 16.433 1.52881 16.4308 2.06938V4.78327C16.4329 5.05085 16.3821 5.31621 16.2811 5.56403C16.1802 5.81186 16.0312 6.03725 15.8427 6.2272C15.6542 6.41716 15.43 6.56793 15.183 6.67081C14.9359 6.7737 14.671 6.82667 14.4034 6.82666H11.7055ZM2.49424 6.82666C2.22732 6.82666 1.96304 6.77396 1.71654 6.67157C1.47003 6.56918 1.24617 6.41913 1.0578 6.23002C0.869433 6.04091 0.720268 5.81646 0.61885 5.56956C0.517433 5.32266 0.465762 5.05816 0.466813 4.79124V2.07737C0.464685 1.5368 0.676848 1.01741 1.05684 0.632928C1.43683 0.248448 1.95368 0.0302081 2.49424 0.0259891H5.19216C5.45946 0.0270352 5.72393 0.0807137 5.97047 0.18397C6.21702 0.287227 6.44082 0.438035 6.62908 0.627782C6.81735 0.817529 6.9664 1.0425 7.06772 1.28985C7.16904 1.5372 7.22065 1.80209 7.2196 2.06938V4.78327C7.2217 5.04951 7.17133 5.31357 7.07138 5.56035C6.97144 5.80714 6.82386 6.03182 6.63707 6.22156C6.45029 6.41131 6.22797 6.56241 5.98279 6.66624C5.73761 6.77006 5.47438 6.82457 5.20813 6.82666H2.49424Z" fill="#7D8CAC"/>
</svg>
