<svg width="176" height="73" viewBox="0 0 176 73" fill="none" xmlns="http://www.w3.org/2000/svg">
<path d="M50.0577 23.1355C51.5672 21.803 53.9348 22.3063 54.7717 24.1377L58.6684 32.6647C59.6928 34.9065 57.7268 37.3586 55.3159 36.8461L44.3909 34.5236C41.9801 34.0111 41.1816 30.9712 43.0293 29.3401L50.0577 23.1355Z" fill="#56E39F"/>
<path d="M55.9364 43.035C54.8674 48.0633 51.8448 52.461 47.5334 55.2607C43.222 58.0603 37.975 59.0327 32.9467 57.9637C27.9184 56.8948 23.5207 53.8721 20.7211 49.5607C17.9214 45.2493 16.9491 40.0024 18.018 34.9741L36.9772 39.0045L55.9364 43.035Z" fill="#4C67F4"/>
<circle cx="28.5807" cy="23.7452" r="9.96013" transform="rotate(12.0016 28.5807 23.7452)" fill="#4C67F4"/>
<path d="M73.819 49.2399H73.7404C76.0014 42.8984 77.9256 35.928 79.5128 28.3288H87.7335L87.7448 28.4186L89.3844 30.047C90.9941 37.6688 92.9183 44.6167 95.1569 50.8908H86.7677L85.1168 49.2399H85.0494L84.8361 47.8473H84.2072L84.1959 47.9484C84.1959 47.9933 84.1922 48.027 84.1847 48.0495C84.0424 48.9928 83.9039 49.9399 83.7692 50.8908H75.4698L73.819 49.2399ZM82.882 37.6725C83.1964 36.0703 83.4285 35.0259 83.5782 34.5392C83.7579 35.1157 84.0087 36.2051 84.3307 37.8073C84.6676 39.4394 84.9072 40.4951 85.0494 40.9743H82.1295C82.3167 40.3304 82.5675 39.2298 82.882 37.6725ZM85.6559 44.9611L86.1163 48.0045H91.7653C89.886 42.7187 88.2052 36.5719 86.7228 29.5641H80.5236C79.0636 36.542 77.3865 42.6888 75.4923 48.0045H81.0402L81.4894 44.9611H85.6559ZM104.029 28.3288C105.901 28.3288 107.323 28.939 108.297 30.1593L109.566 31.4284C109.708 31.5631 109.869 31.7503 110.048 31.9899L110.071 32.0124C110.812 33.0306 111.183 34.382 111.183 36.0666C111.183 36.4035 111.172 36.7142 111.149 36.9987C110.992 39.125 110.363 40.817 109.262 42.0749C109.075 42.292 108.892 42.4717 108.712 42.6139C107.716 43.5648 106.335 44.0402 104.568 44.0402H103.524L103.714 46.7917C103.797 47.8623 103.894 49.2287 104.006 50.8908H95.9542L94.3033 49.2399H94.236C94.4681 46.0654 94.5841 43.1904 94.5841 40.6149C94.5841 37.2757 94.4044 33.1803 94.045 28.3288H104.029ZM103.007 36.8639C102.7 37.2383 101.91 37.4254 100.637 37.4254V33.3151C101.805 33.3151 102.547 33.5172 102.861 33.9215C103.183 34.3109 103.363 34.8013 103.4 35.3927C103.408 35.4377 103.411 35.5088 103.411 35.6061C103.411 36.0928 103.276 36.512 103.007 36.8639ZM95.3815 29.5641C95.6735 33.5023 95.8195 37.1859 95.8195 40.6149C95.8195 43.1904 95.7334 45.6536 95.5612 48.0045H101.03L100.536 41.154H102.883C104.358 41.154 105.481 40.7721 106.253 40.0085C106.425 39.8662 106.567 39.7277 106.679 39.5929C107.6 38.5522 108.128 37.096 108.263 35.2243C108.285 34.9398 108.297 34.659 108.297 34.382C108.297 32.9669 108.001 31.8514 107.409 31.0353C106.713 30.0545 105.586 29.5641 104.029 29.5641H95.3815ZM119.336 28.3288L119.37 28.4186L120.998 30.047C120.998 30.077 121.006 30.1069 121.021 30.1369L121.706 28.3288H130.948C130.948 28.3363 130.941 28.3475 130.926 28.3625L130.903 28.3961L132.566 30.047L125.58 42.1872L126.22 50.8908H118.157L116.506 49.2399H116.439L117.079 40.5363C116.412 39.3908 115.005 36.9425 112.856 33.1916L110.06 28.3288H119.336ZM112.193 29.5641L118.224 40.0085L118.337 40.278C118.134 43.153 117.947 45.7285 117.775 48.0045H123.244C122.982 44.3808 122.791 41.8053 122.672 40.278L122.795 40.0085L128.815 29.5641H122.559C122.297 30.2454 121.9 31.2974 121.369 32.7199L120.515 34.9772C120.253 34.2884 119.92 33.3975 119.516 32.3044C118.924 30.7246 118.58 29.8112 118.483 29.5641H112.193Z" fill="#56E39F"/>
<path d="M139.113 28.3288L139.158 28.4411L140.775 30.047L140.809 30.1481L140.674 28.3288H148.895L148.883 28.3961L150.546 30.047C150.201 34.8986 150.029 38.9902 150.029 42.3219C150.029 44.9648 150.141 47.8211 150.366 50.8908H143.089L141.438 49.2399H141.381L140.943 48.2516L141.146 50.8908H133.352L131.701 49.2399H131.633C131.866 46.0654 131.982 43.1904 131.982 40.6149C131.982 37.2757 131.802 33.1803 131.443 28.3288H139.113ZM132.779 29.5641C133.071 33.5023 133.217 37.1859 133.217 40.6149C133.217 43.1904 133.131 45.6536 132.959 48.0045H138.158C137.836 43.6621 137.675 40.701 137.675 39.1212C137.675 38.8667 137.683 38.6121 137.698 38.3576C138.342 39.4432 139.839 42.6588 142.19 48.0045H147.39C147.225 45.751 147.143 43.2952 147.143 40.6374C147.143 37.2607 147.285 33.5697 147.569 29.5641H142.01C142.018 29.624 142.104 30.8107 142.269 33.1242C142.426 35.3478 142.583 37.5265 142.74 39.6603C141.063 35.8345 139.585 32.4691 138.304 29.5641H132.779ZM157.924 28.3288L157.913 28.3961L159.575 30.047C159.215 34.8986 159.036 38.9827 159.036 42.2995C159.036 44.8525 159.152 47.7163 159.384 50.8908H151.343L149.692 49.2399H149.625C149.857 46.0654 149.973 43.1904 149.973 40.6149C149.973 37.2757 149.793 33.1803 149.434 28.3288H157.924ZM150.77 29.5641C151.062 33.5023 151.208 37.1859 151.208 40.6149C151.208 43.1904 151.122 45.6536 150.95 48.0045H156.408C156.236 45.6536 156.15 43.1904 156.15 40.6149C156.15 37.1859 156.296 33.5023 156.588 29.5641H150.77ZM173.265 28.3288V28.3961L174.916 30.047C174.796 31.522 174.732 32.3493 174.725 32.529L174.444 36.4147H172.636L173.456 37.2345C173.261 39.9748 173.164 41.562 173.164 41.9962V43.3551H168.043C168.147 46.3275 168.275 48.8393 168.424 50.8908H160.372L158.721 49.2399H158.654C158.886 46.0654 159.002 43.1904 159.002 40.6149C159.002 37.2757 158.822 33.1803 158.463 28.3288H173.265ZM159.799 29.5641C160.091 33.5023 160.237 37.1859 160.237 40.6149C160.237 43.1904 160.151 45.6536 159.979 48.0045H165.448C165.321 46.2002 165.213 43.6883 165.123 40.4689H170.277V40.3117C170.277 39.8325 170.345 38.6458 170.48 36.7516H165.224C165.216 36.6468 165.213 36.4709 165.213 36.2238C165.213 35.5949 165.254 34.6964 165.336 33.5285H171.636L171.928 29.5641H159.799Z" fill="#4C67F4"/>
</svg>
