<svg width="22" height="22" viewBox="0 0 22 22" xmlns="http://www.w3.org/2000/svg">
<path fill-rule="evenodd" clip-rule="evenodd" d="M9.79 1.6C5.26679 1.6 1.6 5.26678 1.6 9.78999C1.6 14.3132 5.26679 17.98 9.79 17.98C14.3132 17.98 17.98 14.3132 17.98 9.78999C17.98 5.26678 14.3132 1.6 9.79 1.6ZM0 9.78999C0 4.38312 4.38313 0 9.79 0C15.1969 0 19.58 4.38312 19.58 9.78999C19.58 15.1969 15.1969 19.58 9.79 19.58C4.38313 19.58 0 15.1969 0 9.78999Z"/>
<path fill-rule="evenodd" clip-rule="evenodd" d="M15.4735 15.9451C15.7855 15.6323 16.292 15.6316 16.6049 15.9435L21.3052 20.6305C21.618 20.9425 21.6188 21.449 21.3068 21.7619C20.9948 22.0747 20.4883 22.0755 20.1754 21.7635L15.4751 17.0765C15.1622 16.7645 15.1615 16.258 15.4735 15.9451Z"/>
</svg>
