<svg width="23" height="23" viewBox="0 0 23 23" fill="none" xmlns="http://www.w3.org/2000/svg">
<path d="M11.295 3.72489C13.8158 3.72489 14.0908 3.72489 15.0992 3.77072C16.0158 3.81655 16.52 3.95405 16.8408 4.09155C17.2533 4.22905 17.62 4.50405 17.9408 4.77905C18.2617 5.09988 18.4908 5.46655 18.6283 5.87905C18.7658 6.19988 18.9033 6.70405 18.9492 7.62072C18.995 8.62905 18.995 8.90405 18.995 11.4249C18.995 13.9457 18.995 14.2207 18.9492 15.229C18.9033 16.1457 18.7658 16.6499 18.6283 16.9707C18.3075 17.7957 17.6658 18.4374 16.8408 18.7582C16.52 18.8957 16.0158 19.0332 15.0992 19.079C14.0908 19.1249 13.8158 19.1249 11.295 19.1249C8.77417 19.1249 8.49917 19.1249 7.49084 19.079C6.57417 19.0332 6.07 18.8957 5.74917 18.7582C5.33667 18.6207 4.97 18.3457 4.64917 18.0707C4.32834 17.7499 4.09917 17.3832 3.96167 16.9707C3.82417 16.6499 3.68667 16.1457 3.64084 15.229C3.595 14.2207 3.595 13.9457 3.595 11.4249C3.595 8.90405 3.595 8.62905 3.64084 7.62072C3.68667 6.70405 3.82417 6.19988 3.96167 5.87905C4.09917 5.46655 4.37417 5.09988 4.64917 4.77905C4.97 4.45822 5.33667 4.22905 5.74917 4.09155C6.07 3.95405 6.57417 3.81655 7.49084 3.77072C8.49917 3.72489 8.82 3.72489 11.295 3.72489ZM11.295 2.02905C8.72834 2.02905 8.4075 2.02905 7.39917 2.07489C6.39084 2.12072 5.70334 2.25822 5.1075 2.53322C4.51167 2.76239 3.96167 3.12905 3.50334 3.58739C3.045 4.04572 2.6325 4.64155 2.40334 5.23738C2.17417 5.83322 1.99084 6.52072 1.945 7.52905C1.89917 8.53738 1.89917 8.85822 1.89917 11.4249C1.89917 13.9915 1.89917 14.3124 1.945 15.3207C1.99084 16.329 2.12834 17.0165 2.40334 17.6124C2.6325 18.2082 2.99917 18.804 3.50334 19.2624C3.96167 19.7207 4.5575 20.1332 5.15334 20.3624C5.74917 20.5915 6.43667 20.7749 7.445 20.8207C8.45334 20.8665 8.77417 20.8665 11.3408 20.8665C13.9075 20.8665 14.2283 20.8665 15.2367 20.8207C16.245 20.7749 16.9325 20.6374 17.5283 20.3624C18.8117 19.8582 19.7742 18.8957 20.2783 17.6124C20.5075 17.0165 20.6908 16.329 20.7367 15.3207C20.7825 14.3124 20.7825 13.9915 20.7825 11.4249C20.7825 8.85822 20.7825 8.53738 20.7367 7.52905C20.6908 6.52072 20.5533 5.83322 20.2783 5.23738C20.0492 4.59572 19.6825 4.04572 19.1783 3.58739C18.72 3.12905 18.1242 2.71655 17.5283 2.48739C16.9325 2.25822 16.245 2.07489 15.2367 2.02905C14.1825 2.02905 13.8617 2.02905 11.295 2.02905Z" fill="#36F599"/>
<path d="M11.2937 6.6123C8.63537 6.6123 6.4812 8.76647 6.4812 11.4248C6.4812 14.0831 8.63537 16.2373 11.2937 16.2373C13.952 16.2373 16.1062 14.0831 16.1062 11.4248C16.152 8.76647 13.9979 6.6123 11.2937 6.6123ZM11.2937 14.5873C9.55204 14.5873 8.17704 13.1665 8.17704 11.4706C8.17704 9.72897 9.59787 8.35397 11.2937 8.35397C13.0354 8.35397 14.4104 9.77481 14.4104 11.4706C14.4562 13.1665 13.0354 14.5873 11.2937 14.5873Z" fill="#36F599"/>
<path d="M16.338 7.57487C16.9708 7.57487 17.4838 7.06186 17.4838 6.42904C17.4838 5.79621 16.9708 5.2832 16.338 5.2832C15.7051 5.2832 15.1921 5.79621 15.1921 6.42904C15.1921 7.06186 15.7051 7.57487 16.338 7.57487Z" fill="#36F599"/>
</svg>
