<svg width="23" height="23" viewBox="0 0 23 23" fill="none" xmlns="http://www.w3.org/2000/svg">
<path d="M4.9085 7.06797C6.0162 7.06797 6.91417 6.17001 6.91417 5.06231C6.91417 3.95461 6.0162 3.05664 4.9085 3.05664C3.8008 3.05664 2.90283 3.95461 2.90283 5.06231C2.90283 6.17001 3.8008 7.06797 4.9085 7.06797Z" fill="#36F599"/>
<path d="M8.80692 8.58774V19.7152H12.2618V14.2124C12.2618 12.7604 12.535 11.3542 14.3353 11.3542C16.1109 11.3542 16.1329 13.0143 16.1329 14.3041V19.7161H19.5897V13.6138C19.5897 10.6163 18.9443 8.31274 15.4408 8.31274C13.7588 8.31274 12.6313 9.23583 12.1702 10.1094H12.1234V8.58774H8.80692V8.58774ZM3.17676 8.58774H6.63717V19.7152H3.17676V8.58774Z" fill="#36F599"/>
</svg>
