<svg width="111" height="110" viewBox="0 0 111 110" fill="none" xmlns="http://www.w3.org/2000/svg">
<path d="M49.7252 22.4899C51.2347 21.1573 53.6023 21.6606 54.4392 23.492L58.3358 32.0191C59.3602 34.2608 57.3942 36.7129 54.9834 36.2004L44.0584 33.8779C41.6476 33.3654 40.8491 30.3256 42.6968 28.6944L49.7252 22.4899Z" fill="white"/>
<path d="M55.6038 42.3895C54.5349 47.4178 51.5123 51.8155 47.2009 54.6152C42.8895 57.4148 37.6425 58.3872 32.6142 57.3182C27.5859 56.2493 23.1882 53.2266 20.3885 48.9152C17.5889 44.6038 16.6165 39.3569 17.6855 34.3286L36.6447 38.359L55.6038 42.3895Z" fill="white"/>
<circle cx="28.2481" cy="23.0997" r="9.96013" transform="rotate(12.0016 28.2481 23.0997)" fill="white"/>
<path d="M8.65137 99.8115H8.57275C10.8338 93.4701 12.758 86.4997 14.3452 78.9004H22.5659L22.5771 78.9902L24.2168 80.6187C25.8265 88.2404 27.7507 95.1883 29.9893 101.462H21.6001L19.9492 99.8115H19.8818L19.6685 98.4189H19.0396L19.0283 98.52C19.0283 98.5649 19.0246 98.5986 19.0171 98.6211C18.8748 99.5645 18.7363 100.512 18.6016 101.462H10.3022L8.65137 99.8115ZM17.7144 88.2441C18.0288 86.6419 18.2609 85.5975 18.4106 85.1108C18.5903 85.6873 18.8411 86.7767 19.1631 88.3789C19.5 90.0111 19.7396 91.0667 19.8818 91.5459H16.9619C17.1491 90.902 17.3999 89.8014 17.7144 88.2441ZM20.4883 95.5327L20.9487 98.5762H26.5977C24.7184 93.2904 23.0376 87.1436 21.5552 80.1357H15.356C13.896 87.1136 12.2189 93.2604 10.3247 98.5762H15.8726L16.3218 95.5327H20.4883ZM38.8613 78.9004C40.7331 78.9004 42.1556 79.5106 43.1289 80.731L44.3979 82C44.5402 82.1348 44.7012 82.3219 44.8809 82.5615L44.9033 82.584C45.6445 83.6022 46.0151 84.9536 46.0151 86.6382C46.0151 86.9751 46.0039 87.2858 45.9814 87.5703C45.8242 89.6966 45.1953 91.3887 44.0947 92.6465C43.9076 92.8636 43.7241 93.0433 43.5444 93.1855C42.5487 94.1364 41.1673 94.6118 39.4004 94.6118H38.356L38.5469 97.3633C38.6292 98.4339 38.7266 99.8003 38.8389 101.462H30.7866L29.1357 99.8115H29.0684C29.3005 96.637 29.4165 93.762 29.4165 91.1865C29.4165 87.8473 29.2368 83.752 28.8774 78.9004H38.8613ZM37.8394 87.4355C37.5324 87.8099 36.7425 87.9971 35.4697 87.9971V83.8867C36.6377 83.8867 37.3789 84.0889 37.6934 84.4932C38.0153 84.8825 38.195 85.3729 38.2324 85.9644C38.2399 86.0093 38.2437 86.0804 38.2437 86.1777C38.2437 86.6644 38.1089 87.0837 37.8394 87.4355ZM30.2139 80.1357C30.5059 84.0739 30.6519 87.7575 30.6519 91.1865C30.6519 93.762 30.5658 96.2253 30.3936 98.5762H35.8628L35.3687 91.7256H37.7158C39.1908 91.7256 40.3138 91.3438 41.085 90.5801C41.2572 90.4378 41.3994 90.2993 41.5117 90.1646C42.4326 89.1239 42.9604 87.6676 43.0952 85.7959C43.1177 85.5114 43.1289 85.2306 43.1289 84.9536C43.1289 83.5386 42.8332 82.423 42.2417 81.6069C41.5454 80.6261 40.4186 80.1357 38.8613 80.1357H30.2139ZM54.1685 78.9004L54.2021 78.9902L55.8306 80.6187C55.8306 80.6486 55.8381 80.6785 55.853 80.7085L56.5381 78.9004H65.7808C65.7808 78.9079 65.7733 78.9191 65.7583 78.9341L65.7358 78.9678L67.3979 80.6187L60.4126 92.7588L61.0527 101.462H52.9893L51.3384 99.8115H51.271L51.9111 91.1079C51.2448 89.9624 49.8372 87.5142 47.6885 83.7632L44.8921 78.9004H54.1685ZM47.0259 80.1357L53.0566 90.5801L53.1689 90.8496C52.9668 93.7246 52.7796 96.3001 52.6074 98.5762H58.0767C57.8146 94.9525 57.6237 92.377 57.5039 90.8496L57.6274 90.5801L63.647 80.1357H57.3916C57.1296 80.8171 56.7327 81.869 56.2012 83.2915L55.3477 85.5488C55.0856 84.86 54.7524 83.9691 54.3481 82.876C53.7567 81.2962 53.4123 80.3828 53.3149 80.1357H47.0259ZM73.9453 78.9004L73.9902 79.0127L75.6074 80.6187L75.6411 80.7197L75.5063 78.9004H83.7271L83.7158 78.9678L85.3779 80.6187C85.0335 85.4702 84.8613 89.5618 84.8613 92.8936C84.8613 95.5365 84.9736 98.3927 85.1982 101.462H77.9209L76.27 99.8115H76.2139L75.7759 98.8232L75.978 101.462H68.1841L66.5332 99.8115H66.4658C66.6979 96.637 66.814 93.762 66.814 91.1865C66.814 87.8473 66.6343 83.752 66.2749 78.9004H73.9453ZM67.6113 80.1357C67.9033 84.0739 68.0493 87.7575 68.0493 91.1865C68.0493 93.762 67.9632 96.2253 67.791 98.5762H72.9907C72.6688 94.2337 72.5078 91.2726 72.5078 89.6929C72.5078 89.4383 72.5153 89.1838 72.5303 88.9292C73.1742 90.0148 74.6715 93.2305 77.0225 98.5762H82.2222C82.0575 96.3226 81.9751 93.8669 81.9751 91.209C81.9751 87.8324 82.1174 84.1413 82.4019 80.1357H76.8428C76.8503 80.1956 76.9364 81.3823 77.1011 83.6958C77.2583 85.9194 77.4155 88.0981 77.5728 90.2319C75.8957 86.4061 74.417 83.0407 73.1367 80.1357H67.6113ZM92.7563 78.9004L92.7451 78.9678L94.4072 80.6187C94.0479 85.4702 93.8682 89.5544 93.8682 92.8711C93.8682 95.4242 93.9842 98.2879 94.2163 101.462H86.1753L84.5244 99.8115H84.457C84.6891 96.637 84.8052 93.762 84.8052 91.1865C84.8052 87.8473 84.6255 83.752 84.2661 78.9004H92.7563ZM85.6025 80.1357C85.8945 84.0739 86.0405 87.7575 86.0405 91.1865C86.0405 93.762 85.9544 96.2253 85.7822 98.5762H91.2402C91.068 96.2253 90.9819 93.762 90.9819 91.1865C90.9819 87.7575 91.1279 84.0739 91.4199 80.1357H85.6025ZM108.097 78.9004V78.9678L109.748 80.6187C109.628 82.0936 109.565 82.9209 109.557 83.1006L109.276 86.9863H107.468L108.288 87.8062C108.093 90.5464 107.996 92.1336 107.996 92.5679V93.9268H102.875C102.98 96.8991 103.107 99.411 103.257 101.462H95.2046L93.5537 99.8115H93.4863C93.7184 96.637 93.8345 93.762 93.8345 91.1865C93.8345 87.8473 93.6548 83.752 93.2954 78.9004H108.097ZM94.6318 80.1357C94.9238 84.0739 95.0698 87.7575 95.0698 91.1865C95.0698 93.762 94.9837 96.2253 94.8115 98.5762H100.281C100.153 96.7718 100.045 94.2599 99.9551 91.0405H105.11V90.8833C105.11 90.4041 105.177 89.2174 105.312 87.3232H100.056C100.049 87.2184 100.045 87.0425 100.045 86.7954C100.045 86.1665 100.086 85.2681 100.168 84.1001H106.469L106.761 80.1357H94.6318Z" fill="white"/>
</svg>
