<svg width="22" height="23" viewBox="0 0 22 23" xmlns="http://www.w3.org/2000/svg">
<path fill-rule="evenodd" clip-rule="evenodd" d="M7.74076 1.03193C5.22092 1.89771 3.19151 3.52039 1.83943 5.75044C1.05482 7.04455 0.581693 8.44078 0.389187 10.0301C0.304496 10.7292 0.324895 12.136 0.429571 12.8173C1.09389 17.1415 4.30575 20.6759 8.51335 21.7128C9.36773 21.9233 9.86131 21.987 10.8377 22.0128C11.7663 22.0373 12.3783 21.9874 13.2533 21.8156C16.6414 21.1506 19.5862 18.745 20.9829 15.5014C21.2453 14.892 21.4706 14.1859 21.4699 13.9755C21.469 13.7338 21.3359 13.4973 21.1123 13.3401C20.9708 13.2407 20.8999 13.2197 20.7109 13.2214C20.5106 13.2232 20.4006 13.2632 19.8507 13.5339C18.6203 14.1397 17.7112 14.3752 16.4452 14.416C15.5817 14.4439 15.0084 14.3871 14.2444 14.1981C12.7156 13.8199 11.4608 13.1175 10.3681 12.0282C9.24097 10.9045 8.54064 9.66387 8.15625 8.10998C7.96725 7.34595 7.91048 6.7726 7.93831 5.90909C7.97919 4.64049 8.21488 3.73139 8.82255 2.4986C9.09615 1.94363 9.13588 1.83462 9.13588 1.63906C9.13588 1.45803 9.11263 1.38205 9.01468 1.24269C8.74203 0.854744 8.41429 0.800485 7.74076 1.03193ZM6.70783 3.5125C6.58647 3.90776 6.46812 4.47375 6.39417 5.01304C6.31348 5.60108 6.32471 6.9504 6.41527 7.55253C7.07199 11.919 10.4317 15.2789 14.8018 15.9394C15.4583 16.0387 16.7897 16.0397 17.4667 15.9416C17.8886 15.8805 18.9198 15.6443 19.1343 15.5597C19.2007 15.5335 19.191 15.5684 19.0752 15.7729C18.6483 16.527 18.1596 17.1531 17.4798 17.8169C16.3843 18.8868 15.0753 19.6604 13.6719 20.0675C10.3708 21.025 6.88683 20.0955 4.49611 17.6193C2.67709 15.7354 1.74305 13.1827 1.93824 10.6288C2.07892 8.78772 2.68692 7.18779 3.81338 5.69436C4.31868 5.02447 5.23166 4.15881 5.92954 3.68787C6.26996 3.45812 6.78236 3.15309 6.79933 3.17002C6.80507 3.1758 6.7639 3.32991 6.70783 3.5125Z"/>
</svg>
