<svg width="21" height="20" viewBox="0 0 21 20" fill="none" xmlns="http://www.w3.org/2000/svg">
<path fill-rule="evenodd" clip-rule="evenodd" d="M9.40657 0.183126C7.08376 0.466482 5.05381 1.47934 3.42771 3.16629C1.88972 4.76182 0.962744 6.75449 0.731612 8.96196C0.665444 9.59362 0.704488 10.8872 0.807255 11.4701C1.18574 13.6166 2.12394 15.4127 3.64356 16.9C5.12139 18.3463 6.84541 19.2244 8.92903 19.5918C9.51687 19.6955 10.8145 19.7341 11.4402 19.6665C13.6695 19.4257 15.6359 18.5108 17.2328 16.9714C19.208 15.0675 20.2564 12.6235 20.2564 9.92286C20.2564 8.19419 19.8329 6.58284 18.9945 5.12155C17.6639 2.8024 15.4616 1.10505 12.9294 0.446998C12.0843 0.227442 11.654 0.173805 10.6291 0.160395C10.1143 0.153671 9.56416 0.163872 9.40657 0.183126ZM11.0111 2.51247C14.7142 2.79339 17.6073 5.69021 17.8872 9.39756C18.1656 13.0837 15.6142 16.4508 11.9734 17.202C8.62699 17.8925 5.23597 16.1971 3.75646 13.0938C2.9452 11.3922 2.82475 9.36986 3.42722 7.5662C4.36233 4.76664 6.94836 2.73818 9.8675 2.51458C10.4505 2.46992 10.4501 2.46992 11.0111 2.51247ZM9.7313 3.64322C8.19739 3.87248 6.92105 4.5153 5.92073 5.5623C5.06714 6.45573 4.53802 7.48073 4.26132 8.77675C4.16199 9.24211 4.16199 10.6036 4.26132 11.069C4.53802 12.365 5.06714 13.39 5.92073 14.2834C6.79639 15.2 7.84749 15.7884 9.16127 16.0977C9.58655 16.1978 9.67232 16.2049 10.4572 16.2061C11.3567 16.2074 11.5865 16.1779 12.2718 15.9726C14.2384 15.3837 15.8086 13.8687 16.4552 11.9362C16.7151 11.1594 16.7567 10.8821 16.7567 9.92286C16.7567 8.9628 16.7152 8.68652 16.4541 7.90617C15.8162 5.99989 14.2615 4.48546 12.3291 3.88799C11.7037 3.69465 11.4057 3.6514 10.61 3.63849C10.1897 3.63165 9.79434 3.63379 9.7313 3.64322ZM10.7762 4.87002C10.9933 5.03204 11.0282 5.12266 11.0433 5.56353L11.0573 5.97548L11.2973 6.02315C11.971 6.1571 12.6795 6.63548 13.0356 7.19688C13.308 7.62656 13.4043 8.26078 13.2335 8.50035C13.1197 8.65989 12.9661 8.73855 12.7685 8.73855C12.4481 8.73855 12.253 8.54428 12.2025 8.17509C12.1453 7.75676 11.9128 7.47928 11.4268 7.24937C11.0164 7.05526 11.0493 6.96606 11.0493 8.27312V9.41219L11.2933 9.46067C11.9744 9.59607 12.6762 10.0686 13.034 10.6328C13.5771 11.4891 13.3247 12.625 12.4467 13.2757C12.1353 13.5065 11.681 13.7229 11.3383 13.8037L11.0573 13.8699L11.0433 14.282C11.0281 14.7257 10.9938 14.8133 10.7701 14.9803C10.6299 15.085 10.3227 15.085 10.1824 14.9803C9.95877 14.8133 9.92446 14.7257 9.90929 14.282L9.8952 13.8699L9.61421 13.8037C9.08452 13.6788 8.4257 13.2916 8.13837 12.9363C7.84638 12.5753 7.71309 12.2903 7.64921 11.8904C7.59718 11.5647 7.64443 11.382 7.82086 11.2272C8.16763 10.9226 8.6765 11.1255 8.73774 11.5927C8.7774 11.8952 8.86763 12.0889 9.05476 12.2734C9.22423 12.4404 9.57348 12.638 9.79816 12.6939L9.90322 12.72V11.5767V10.4335L9.61822 10.3663C8.90752 10.1987 8.26387 9.75006 7.90395 9.17136C7.54224 8.58967 7.5482 7.77842 7.91854 7.19444C8.27632 6.63032 8.97816 6.15774 9.65925 6.02235L9.90322 5.97387V5.64635C9.90322 5.26626 9.94356 5.09595 10.0647 4.96449C10.2537 4.75942 10.5716 4.7172 10.7762 4.87002ZM9.52577 7.24937C9.19328 7.40666 9.00333 7.56555 8.87016 7.79775C8.66726 8.15151 8.73893 8.53271 9.0679 8.8498C9.22946 9.00555 9.58323 9.20211 9.79816 9.25556L9.90322 9.28169V8.20783C9.90322 6.97496 9.93504 7.05576 9.52577 7.24937ZM11.0493 11.6461V12.72L11.1544 12.6953C11.3602 12.647 11.7205 12.446 11.8846 12.2879C12.2136 11.9712 12.2853 11.5898 12.0824 11.2361C11.9492 11.0039 11.7593 10.845 11.4268 10.6877C11.0175 10.4941 11.0493 10.4133 11.0493 11.6461Z" fill="#7D8CAC"/>
</svg>
