<svg width="13" height="22" viewBox="0 0 13 22" fill="none" xmlns="http://www.w3.org/2000/svg">
<path fill-rule="evenodd" clip-rule="evenodd" d="M7.92121 0.834852C7.81814 0.904097 7.10715 2.00382 4.93018 5.46114C0.100294 13.1317 0.483371 12.5065 0.48357 12.7176C0.483729 12.9384 0.588512 13.1286 0.771574 13.2402C0.89729 13.3169 0.976802 13.3193 3.37459 13.3194L5.84788 13.3196L4.95692 16.8515C4.46688 18.7941 4.06581 20.455 4.06565 20.5426C4.06458 21.1072 4.80809 21.3318 5.15252 20.8709C5.23777 20.7569 11.9554 10.0952 12.291 9.54131C12.5107 9.17877 12.4485 8.81515 12.1341 8.62346C12.0083 8.54677 11.9288 8.54434 9.53092 8.54422L7.05748 8.54406L7.94855 5.01216C8.43864 3.06964 8.83975 1.40863 8.83995 1.32108C8.8409 0.868281 8.29868 0.581311 7.92121 0.834852Z" fill="#7D8CAC"/>
</svg>
