<svg width="23" height="23" viewBox="0 0 23 23" fill="none" xmlns="http://www.w3.org/2000/svg">
<path d="M19.1035 5.60122C19.9638 5.08555 20.6244 4.26904 20.9355 3.29616C20.1305 3.77357 19.2388 4.12032 18.2898 4.30722C17.5297 3.49747 16.4469 2.99146 15.2486 2.99146C12.9475 2.99146 11.082 4.85691 11.082 7.15781C11.082 7.48435 11.1189 7.80235 11.1899 8.10728C7.72718 7.93354 4.65717 6.27481 2.60222 3.75411C2.24358 4.36947 2.03812 5.08518 2.03812 5.84873C2.03812 7.29419 2.77374 8.56947 3.89169 9.3166C3.20866 9.29498 2.56627 9.10757 2.00447 8.79551C2.00417 8.81289 2.00417 8.83035 2.00417 8.84788C2.00417 10.8666 3.44035 12.5506 5.34636 12.9333C4.99671 13.0285 4.62864 13.0794 4.24861 13.0794C3.98016 13.0794 3.71913 13.0533 3.46479 13.0046C3.99494 14.66 5.53362 15.8645 7.35681 15.8982C5.93089 17.0156 4.13437 17.6817 2.18238 17.6817C1.8461 17.6817 1.51443 17.662 1.18848 17.6235C3.03231 18.8057 5.22238 19.4954 7.57528 19.4954C15.2388 19.4954 19.4296 13.1467 19.4296 7.64094C19.4296 7.46028 19.4255 7.28059 19.4175 7.10195C20.2315 6.51452 20.9379 5.78068 21.4965 4.94516C20.7493 5.27653 19.9463 5.50049 19.1035 5.60122Z" fill="#36F599"/>
</svg>
